<svg width="12" height="7" viewBox="0 0 12 7" fill="none" xmlns="http://www.w3.org/2000/svg">
<path d="M0.535889 0.30539C0.499866 0.397745 0.490728 0.498412 0.509531 0.595745C0.528333 0.693077 0.574309 0.783097 0.642139 0.85539L5.64214 5.85539C5.73694 5.94928 5.86497 6.00195 5.99839 6.00195C6.13181 6.00195 6.25984 5.94928 6.35464 5.85539L11.3546 0.85539C11.4464 0.759412 11.4978 0.631911 11.4984 0.49914C11.4981 0.432782 11.4854 0.367064 11.4609 0.30539C11.4226 0.214389 11.3583 0.136747 11.276 0.0822482C11.1937 0.0277491 11.0971 -0.00116873 10.9984 -0.000859737L0.998389 -0.000859737C0.899677 -0.00116873 0.803081 0.0277491 0.720776 0.0822482C0.638471 0.136747 0.57414 0.214389 0.535889 0.30539Z" fill="#121212"/>
</svg>
