<svg width="14" height="14" viewBox="0 0 14 14" fill="none" xmlns="http://www.w3.org/2000/svg">
<path d="M13.5 7.54295C13.3937 8.77793 12.937 9.95689 12.1835 10.9411C11.43 11.9253 10.4111 12.6739 9.24658 13.0987C8.0821 13.5235 6.82051 13.6069 5.61025 13.339C4.39999 13.0712 3.2914 12.4632 2.41491 11.5868C1.53843 10.7103 0.930496 9.60168 0.662652 8.39142C0.394808 7.18116 0.478191 5.91957 0.902991 4.75509C1.32779 3.59061 2.07634 2.57168 3.06056 1.81817C4.04478 1.06466 5.22374 0.607927 6.45872 0.501699C6.52438 0.496282 6.59047 0.503851 6.6532 0.523973C6.71594 0.544096 6.7741 0.576378 6.82436 0.618977C6.87462 0.661576 6.91599 0.713657 6.94613 0.772247C6.97626 0.830837 6.99455 0.894788 6.99997 0.960449C7.00539 1.02611 6.99782 1.09219 6.9777 1.15493C6.95757 1.21767 6.92529 1.27582 6.88269 1.32608C6.84009 1.37634 6.78801 1.41772 6.72942 1.44785C6.67083 1.47798 6.60688 1.49628 6.54122 1.5017C5.49596 1.59151 4.4981 1.97799 3.66504 2.61568C2.83198 3.25336 2.19838 4.11572 1.8388 5.10128C1.47922 6.08684 1.4086 7.1546 1.63527 8.17893C1.86194 9.20326 2.37647 10.1415 3.1183 10.8834C3.86013 11.6252 4.79841 12.1397 5.82274 12.3664C6.84707 12.5931 7.91483 12.5225 8.90039 12.1629C9.88595 11.8033 10.7483 11.1697 11.386 10.3366C12.0237 9.50357 12.4102 8.50571 12.5 7.46045C12.5109 7.32784 12.5741 7.20501 12.6756 7.11898C12.7771 7.03294 12.9086 6.99076 13.0412 7.0017C13.1738 7.01264 13.2967 7.07581 13.3827 7.17731C13.4687 7.27882 13.5109 7.41034 13.5 7.54295ZM8.99997 2.0017C9.14831 2.0017 9.29331 1.95771 9.41665 1.8753C9.53999 1.79289 9.63611 1.67576 9.69288 1.53871C9.74965 1.40167 9.7645 1.25087 9.73556 1.10538C9.70662 0.959895 9.63519 0.826258 9.5303 0.721369C9.42541 0.616479 9.29177 0.545049 9.14629 0.51611C9.0008 0.487171 8.85 0.502023 8.71296 0.558789C8.57591 0.615555 8.45878 0.711684 8.37637 0.835021C8.29396 0.958358 8.24997 1.10336 8.24997 1.2517C8.24997 1.45061 8.32899 1.64138 8.46964 1.78203C8.61029 1.92268 8.80106 2.0017 8.99997 2.0017ZM11.25 3.5017C11.3983 3.5017 11.5433 3.45771 11.6666 3.3753C11.79 3.29289 11.8861 3.17576 11.9429 3.03871C11.9996 2.90167 12.0145 2.75087 11.9856 2.60538C11.9566 2.4599 11.8852 2.32626 11.7803 2.22137C11.6754 2.11648 11.5418 2.04505 11.3963 2.01611C11.2508 1.98717 11.1 2.00202 10.963 2.05879C10.8259 2.11555 10.7088 2.21168 10.6264 2.33502C10.544 2.45836 10.5 2.60336 10.5 2.7517C10.5 2.95061 10.579 3.14138 10.7196 3.28203C10.8603 3.42268 11.0511 3.5017 11.25 3.5017ZM12.75 5.7517C12.8983 5.7517 13.0433 5.70771 13.1666 5.6253C13.29 5.54289 13.3861 5.42576 13.4429 5.28871C13.4996 5.15167 13.5145 5.00087 13.4856 4.85538C13.4566 4.70989 13.3852 4.57626 13.2803 4.47137C13.1754 4.36648 13.0418 4.29505 12.8963 4.26611C12.7508 4.23717 12.6 4.25202 12.463 4.30879C12.3259 4.36555 12.2088 4.46168 12.1264 4.58502C12.044 4.70836 12 4.85336 12 5.0017C12 5.20061 12.079 5.39138 12.2196 5.53203C12.3603 5.67268 12.5511 5.7517 12.75 5.7517ZM6.99997 2.5017C7.88999 2.5017 8.76002 2.76562 9.50004 3.26009C10.2401 3.75455 10.8168 4.45736 11.1574 5.27962C11.498 6.10189 11.5871 7.00669 11.4135 7.87961C11.2399 8.75252 10.8113 9.55434 10.182 10.1837C9.55261 10.813 8.75079 11.2416 7.87788 11.4152C7.00496 11.5889 6.10016 11.4998 5.2779 11.1592C4.45563 10.8186 3.75282 10.2418 3.25836 9.50176C2.76389 8.76174 2.49997 7.89171 2.49997 7.0017C2.50129 5.80863 2.97583 4.66481 3.81945 3.82118C4.66308 2.97755 5.8069 2.50302 6.99997 2.5017ZM6.49997 7.0017C6.49997 7.13431 6.55265 7.26148 6.64642 7.35525C6.74019 7.44902 6.86736 7.5017 6.99997 7.5017H9.99997C10.1326 7.5017 10.2598 7.44902 10.3535 7.35525C10.4473 7.26148 10.5 7.13431 10.5 7.0017C10.5 6.86909 10.4473 6.74191 10.3535 6.64815C10.2598 6.55438 10.1326 6.5017 9.99997 6.5017H7.49997V4.0017C7.49997 3.86909 7.44729 3.74191 7.35352 3.64815C7.25976 3.55438 7.13258 3.5017 6.99997 3.5017C6.86736 3.5017 6.74019 3.55438 6.64642 3.64815C6.55265 3.74191 6.49997 3.86909 6.49997 4.0017V7.0017Z" fill="#DFE0E1"/>
</svg>
