<svg width="24" height="25" viewBox="0 0 24 25" xmlns="http://www.w3.org/2000/svg">
<path fill-rule="evenodd" clip-rule="evenodd" d="M11.4716 8.03412C11.8011 7.70462 11.8011 7.17038 11.4716 6.84088C11.1421 6.51137 10.6079 6.51137 10.2784 6.84088L5.21588 11.9034C5.05113 12.0681 4.96875 12.2841 4.96875 12.5C4.96875 12.6144 4.99152 12.7235 5.03277 12.823C5.07395 12.9225 5.13498 13.0157 5.21588 13.0966L10.2784 18.1591C10.6079 18.4886 11.1421 18.4886 11.4716 18.1591C11.8011 17.8296 11.8011 17.2954 11.4716 16.9659L7.84949 13.3438H18.1875C18.6535 13.3438 19.0312 12.966 19.0312 12.5C19.0312 12.034 18.6535 11.6562 18.1875 11.6562H7.84949L11.4716 8.03412Z" fill="#939393"/>
</svg>
