<svg width="24" height="25" viewBox="0 0 24 25" xmlns="http://www.w3.org/2000/svg">
<path fill-rule="evenodd" clip-rule="evenodd" d="M17.6591 8.03412C17.9886 7.70462 17.9886 7.17038 17.6591 6.84088C17.3296 6.51137 16.7954 6.51137 16.4659 6.84088L12 11.3068L7.53412 6.84088C7.20462 6.51137 6.67038 6.51137 6.34088 6.84088C6.01137 7.17038 6.01137 7.70462 6.34088 8.03412L10.8068 12.5L6.34088 16.9659C6.01137 17.2954 6.01137 17.8296 6.34088 18.1591C6.67038 18.4886 7.20462 18.4886 7.53412 18.1591L12 13.6932L16.4659 18.1591C16.7954 18.4886 17.3296 18.4886 17.6591 18.1591C17.9886 17.8296 17.9886 17.2954 17.6591 16.9659L13.1932 12.5L17.6591 8.03412Z" fill="#939393"/>
</svg>
