<svg width="48" height="48" viewBox="0 0 48 48" fill="none" xmlns="http://www.w3.org/2000/svg">
<circle cx="24" cy="24" r="24" fill="#25D7F1"/>
<path d="M35.4785 14.162C35.3788 13.8626 35.1991 13.596 34.9589 13.3912C34.8647 13.315 34.7631 13.2483 34.6558 13.192C34.503 13.1051 34.3357 13.0465 34.1621 13.0188C33.8511 12.9626 33.5306 12.9926 33.2354 13.1054L13.2205 20.9434C12.8782 21.0787 12.5878 21.3195 12.3916 21.631C12.1954 21.9424 12.1035 22.3083 12.1292 22.6755C12.1522 23.0568 12.3006 23.4197 12.5512 23.7079C12.8018 23.9961 13.1406 24.1934 13.515 24.2691L18.5901 25.2737V31.6134C18.5911 31.9559 18.6936 32.2904 18.8846 32.5747C19.0763 32.8578 19.3476 33.0778 19.6641 33.207C19.8729 33.2927 20.0965 33.3369 20.3223 33.3369C20.4374 33.3497 20.5536 33.3497 20.6687 33.3369C20.9975 33.2656 21.2985 33.1001 21.5348 32.8605L24.3409 30.0631L28.6192 33.7959C28.8412 33.9973 29.1136 34.1349 29.4074 34.1943C29.5254 34.2075 29.6445 34.2075 29.7625 34.1943C29.9419 34.1915 30.1199 34.1623 30.2908 34.1077C30.5752 34.0142 30.8315 33.8504 31.0356 33.6313C31.2405 33.4094 31.3838 33.1377 31.4513 32.8432L35.5218 15.0628C35.5872 14.764 35.5722 14.4532 35.4785 14.162ZM28.983 16.5957L19.257 23.6369L13.8527 22.537L28.983 16.5957ZM20.3223 31.6134V26.4776L23.0504 28.8766L20.3223 31.6134ZM29.7625 32.4795L20.8419 24.6242L33.6858 15.3572L29.7625 32.4795Z" fill="#0D0D0D"/>
</svg>
