<svg width="16" height="16" viewBox="0 0 16 16" fill="none" xmlns="http://www.w3.org/2000/svg">
<path d="M5.11156 9.75619C5.16595 9.70418 5.23969 9.67497 5.31658 9.67497H12.4106C12.5398 9.67497 12.6045 9.82453 12.5131 9.91194L11.1113 11.2524C11.0569 11.3044 10.9832 11.3337 10.9063 11.3337H3.8123C3.68308 11.3337 3.61839 11.1841 3.70979 11.0967L5.11156 9.75619Z" fill="white"/>
<path d="M5.11156 4.74823C5.16594 4.69621 5.23969 4.66699 5.31658 4.66699H12.4106C12.5398 4.66699 12.6045 4.81655 12.5131 4.90398L11.1113 6.24446C11.0569 6.29647 10.9832 6.32568 10.9063 6.32568H3.8123C3.68308 6.32568 3.61839 6.17612 3.70979 6.08871L5.11156 4.74823Z" fill="white"/>
<path d="M11.1113 7.23625C11.0569 7.18425 10.9832 7.15504 10.9063 7.15504H3.8123C3.68308 7.15504 3.61839 7.3046 3.70979 7.39201L5.11156 8.73249C5.16594 8.78451 5.23969 8.81373 5.31658 8.81373H12.4106C12.5398 8.81373 12.6045 8.66417 12.5131 8.57674L11.1113 7.23625Z" fill="white"/>
<rect x="0.5" y="0.5" width="15" height="15" rx="7.5" stroke="black"/>
</svg>
