<svg width="20" height="20" viewBox="0 0 20 20" xmlns="http://www.w3.org/2000/svg">
<path d="M6.38902 12.1945C6.45701 12.1295 6.54919 12.093 6.6453 12.093H15.5128C15.6743 12.093 15.7552 12.2799 15.6409 12.3892L13.8887 14.0648C13.8207 14.1298 13.7286 14.1663 13.6324 14.1663H4.76495C4.60343 14.1663 4.52256 13.9794 4.63681 13.8701L6.38902 12.1945Z" fill="url(#paint0_linear_12345_10166)"/>
<path d="M6.38902 5.93455C6.457 5.86953 6.54918 5.833 6.6453 5.83301H15.5128C15.6743 5.83301 15.7552 6.01996 15.6409 6.12924L13.8887 7.80485C13.8207 7.86986 13.7286 7.90637 13.6324 7.90637H4.76495C4.60343 7.90637 4.52256 7.71942 4.63681 7.61016L6.38902 5.93455Z" fill="url(#paint1_linear_12345_10166)"/>
<path d="M13.8887 9.04459C13.8207 8.97958 13.7286 8.94306 13.6324 8.94306H4.76495C4.60343 8.94306 4.52256 9.13001 4.63681 9.23928L6.38902 10.9149C6.457 10.9799 6.54918 11.0164 6.6453 11.0164H15.5128C15.6743 11.0164 15.7552 10.8295 15.6409 10.7202L13.8887 9.04459Z" fill="url(#paint2_linear_12345_10166)"/>
<defs>
<linearGradient id="paint0_linear_12345_10166" x1="16.6666" y1="3.74967" x2="2.45407" y2="10.6273" gradientUnits="userSpaceOnUse">
<stop offset="0.0356089" stop-color="#2BE4CA"/>
<stop offset="0.274851" stop-color="#1BCBB8"/>
<stop offset="0.555773" stop-color="#4D78E4"/>
<stop offset="0.715792" stop-color="#8B61FC"/>
<stop offset="1" stop-color="#AD8FFF"/>
</linearGradient>
<linearGradient id="paint1_linear_12345_10166" x1="16.6666" y1="3.74967" x2="2.45407" y2="10.6273" gradientUnits="userSpaceOnUse">
<stop offset="0.0356089" stop-color="#2BE4CA"/>
<stop offset="0.274851" stop-color="#1BCBB8"/>
<stop offset="0.555773" stop-color="#4D78E4"/>
<stop offset="0.715792" stop-color="#8B61FC"/>
<stop offset="1" stop-color="#AD8FFF"/>
</linearGradient>
<linearGradient id="paint2_linear_12345_10166" x1="16.6666" y1="3.74967" x2="2.45407" y2="10.6273" gradientUnits="userSpaceOnUse">
<stop offset="0.0356089" stop-color="#2BE4CA"/>
<stop offset="0.274851" stop-color="#1BCBB8"/>
<stop offset="0.555773" stop-color="#4D78E4"/>
<stop offset="0.715792" stop-color="#8B61FC"/>
<stop offset="1" stop-color="#AD8FFF"/>
</linearGradient>
</defs>
</svg>
