<svg width="24" height="24" viewBox="0 0 24 24" fill="none" xmlns="http://www.w3.org/2000/svg">
<path fill-rule="evenodd" clip-rule="evenodd" d="M6.25677 5.25H17.5068C17.8051 5.25 18.0913 5.36853 18.3023 5.5795C18.5132 5.79048 18.6318 6.07663 18.6318 6.375V17.625C18.6318 17.9234 18.5132 18.2095 18.3023 18.4205C18.0913 18.6315 17.8051 18.75 17.5068 18.75H6.25677C5.95841 18.75 5.67226 18.6315 5.46128 18.4205C5.2503 18.2095 5.13177 17.9234 5.13177 17.625V6.375C5.13177 6.07663 5.2503 5.79048 5.46128 5.5795C5.67226 5.36853 5.95841 5.25 6.25677 5.25ZM6.25677 17.625H17.5068V6.375H6.25677V17.625ZM13.288 11.3869L10.3124 14.3681C10.2064 14.474 10.0628 14.5336 9.91299 14.5336C9.7632 14.5336 9.61954 14.474 9.51362 14.3681C9.4077 14.2622 9.34819 14.1185 9.34819 13.9688C9.34819 13.819 9.4077 13.6753 9.51362 13.5694L12.4949 10.5938H10.4755C10.3263 10.5938 10.1832 10.5345 10.0777 10.429C9.97226 10.3235 9.91299 10.1804 9.91299 10.0312C9.91299 9.88207 9.97226 9.73899 10.0777 9.6335C10.1832 9.52801 10.3263 9.46875 10.4755 9.46875H13.8505C13.924 9.46964 13.9966 9.48493 14.0642 9.51375C14.2017 9.57083 14.3109 9.68005 14.368 9.8175C14.3968 9.88513 14.4121 9.95774 14.413 10.0312V13.4062C14.413 13.5554 14.3537 13.6985 14.2482 13.804C14.1428 13.9095 13.9997 13.9688 13.8505 13.9688C13.7013 13.9688 13.5582 13.9095 13.4527 13.804C13.3473 13.6985 13.288 13.5554 13.288 13.4062V11.3869Z" fill="#939393"/>
</svg>
