<svg width="48" height="48" viewBox="0 0 48 48" fill="none" xmlns="http://www.w3.org/2000/svg">
<g clip-path="url(#clip0_12504_232648)">
<mask id="mask0_12504_232648" style="mask-type:alpha" maskUnits="userSpaceOnUse" x="0" y="0" width="48" height="48">
<path d="M0 0H48V47.9999H0V0Z" fill="white"/>
</mask>
<g mask="url(#mask0_12504_232648)">
<path fill-rule="evenodd" clip-rule="evenodd" d="M24 0C37.2551 0 48 10.7449 48 24C48 37.254 37.2551 48 24 48C10.7449 48 0 37.254 0 24C0 10.7449 10.7449 0 24 0Z" fill="#2775CA"/>
</g>
<path fill-rule="evenodd" clip-rule="evenodd" d="M19.5018 40.6865C19.5018 41.2511 19.0597 41.5718 18.5137 41.4014C11.2573 39.0864 5.99609 32.2822 5.99609 24.2536C5.99609 16.2254 11.2573 9.42081 18.5137 7.1059C19.0597 6.93653 19.5018 7.25617 19.5018 7.82072V9.21435C19.5018 9.59017 19.2105 10.0325 18.8525 10.155C13.1113 12.2632 8.99855 17.7785 8.99855 24.2441C8.99855 30.7096 13.1113 36.2261 18.8525 38.3332C19.2105 38.4652 19.5018 38.8977 19.5018 39.2749V40.6865Z" fill="white"/>
<path fill-rule="evenodd" clip-rule="evenodd" d="M25.4966 35.5005C25.4966 35.915 25.1579 36.2537 24.7439 36.2537H23.2472C22.8332 36.2537 22.4945 35.915 22.4945 35.5005V33.1291C19.219 32.687 17.6195 30.8513 17.1864 28.3575C17.1108 27.9334 17.4496 27.5477 17.8826 27.5477H19.5956C19.9532 27.5477 20.2546 27.8022 20.3298 28.1592C20.65 29.6464 21.5064 30.7853 24.1319 30.7853C26.0707 30.7853 27.4453 29.7028 27.4453 28.0847C27.4453 26.4653 26.6356 25.8538 23.7932 25.3828C19.5956 24.8183 17.6099 23.5474 17.6099 20.2534C17.6099 17.7124 19.5302 15.7362 22.504 15.3124V12.9876C22.504 12.5734 22.843 12.2344 23.2567 12.2344H24.7535C25.1675 12.2344 25.5062 12.5734 25.5062 12.9876V15.3784C27.925 15.812 29.4591 17.1852 29.9582 19.4627C30.052 19.8964 29.7133 20.3003 29.2712 20.3003H27.6896C27.3509 20.3003 27.0686 20.0742 26.9653 19.745C26.5417 18.2963 25.5062 17.6753 23.7084 17.6753C21.7226 17.6753 20.6966 18.635 20.6966 19.9806C20.6966 21.4018 21.2806 22.1166 24.3302 22.5598C28.4519 23.1244 30.5795 24.3006 30.5795 27.812C30.5795 30.4752 28.6027 32.6306 25.5062 33.1291V35.5005H25.4966Z" fill="white"/>
<path fill-rule="evenodd" clip-rule="evenodd" d="M29.4861 41.401C28.9407 41.5714 28.498 41.2507 28.498 40.6862V39.2936C28.498 38.8794 28.7522 38.4937 29.1474 38.3519C34.8886 36.2437 39.0013 30.7284 39.0013 24.2628C39.0013 17.7973 34.8886 12.2819 29.1474 10.1737C28.7899 10.0417 28.498 9.60918 28.498 9.232V7.83946C28.498 7.27491 28.9407 6.94573 29.4861 7.12355C36.7426 9.43982 42.0038 16.2441 42.0038 24.2724C41.9948 32.2815 36.7426 39.0765 29.4861 41.401Z" fill="white"/>
</g>
<defs>
<clipPath id="clip0_12504_232648">
<rect width="48" height="48" fill="white"/>
</clipPath>
</defs>
</svg>
