<svg width="32" height="32" viewBox="0 0 32 32" fill="none" xmlns="http://www.w3.org/2000/svg">
<g clip-path="url(#clip0_12504_232487)">
<mask id="mask0_12504_232487" style="mask-type:alpha" maskUnits="userSpaceOnUse" x="0" y="0" width="32" height="32">
<path d="M0 0H32V31.9999H0V0Z" fill="white"/>
</mask>
<g mask="url(#mask0_12504_232487)">
<path fill-rule="evenodd" clip-rule="evenodd" d="M16 0C24.8367 0 32 7.16327 32 16C32 24.836 24.8367 32 16 32C7.16327 32 0 24.836 0 16C0 7.16327 7.16327 0 16 0Z" fill="#2775CA"/>
</g>
<path fill-rule="evenodd" clip-rule="evenodd" d="M13.0009 27.1244C13.0009 27.5007 12.7062 27.7145 12.3422 27.6009C7.50453 26.0576 3.99707 21.5214 3.99707 16.1691C3.99707 10.8169 7.50453 6.28054 12.3422 4.73727C12.7062 4.62436 13.0009 4.83745 13.0009 5.21381V6.1429C13.0009 6.39345 12.8067 6.68836 12.568 6.76999C8.74053 8.17545 5.99871 11.8524 5.99871 16.1627C5.99871 20.4731 8.74053 24.1507 12.568 25.5554C12.8067 25.6434 13.0009 25.9318 13.0009 26.1833V27.1244Z" fill="white"/>
<path fill-rule="evenodd" clip-rule="evenodd" d="M16.9974 23.667C16.9974 23.9433 16.7716 24.1692 16.4956 24.1692H15.4978C15.2218 24.1692 14.996 23.9433 14.996 23.667V22.0861C12.8123 21.7913 11.746 20.5675 11.4573 18.905C11.4069 18.6223 11.6327 18.3652 11.9214 18.3652H13.0634C13.3018 18.3652 13.5027 18.5348 13.5529 18.7728C13.7663 19.7643 14.3373 20.5235 16.0876 20.5235C17.3802 20.5235 18.2965 19.8019 18.2965 18.7232C18.2965 17.6435 17.7567 17.2359 15.8618 16.9219C13.0634 16.5455 11.7396 15.6983 11.7396 13.5023C11.7396 11.8083 13.0198 10.4908 15.0023 10.2083V8.65843C15.0023 8.38225 15.2283 8.15625 15.5042 8.15625H16.502C16.778 8.15625 17.0038 8.38225 17.0038 8.65843V10.2523C18.6163 10.5413 19.6391 11.4568 19.9718 12.9752C20.0343 13.2643 19.8085 13.5335 19.5138 13.5335H18.4594C18.2336 13.5335 18.0454 13.3828 17.9765 13.1633C17.6942 12.1975 17.0038 11.7835 15.8053 11.7835C14.4814 11.7835 13.7974 12.4233 13.7974 13.3204C13.7974 14.2679 14.1867 14.7444 16.2198 15.0399C18.9676 15.4163 20.386 16.2004 20.386 18.5413C20.386 20.3168 19.0682 21.7537 17.0038 22.0861V23.667H16.9974Z" fill="white"/>
<path fill-rule="evenodd" clip-rule="evenodd" d="M19.6578 27.6007C19.2941 27.7143 18.999 27.5005 18.999 27.1241V26.1958C18.999 25.9196 19.1685 25.6625 19.4319 25.5679C23.2594 24.1625 26.0012 20.4856 26.0012 16.1752C26.0012 11.8648 23.2594 8.18794 19.4319 6.78249C19.1936 6.69449 18.999 6.40612 18.999 6.15467V5.2263C18.999 4.84994 19.2941 4.63049 19.6578 4.74903C24.4954 6.29321 28.0028 10.8294 28.0028 16.1816C27.9968 21.521 24.4954 26.051 19.6578 27.6007Z" fill="white"/>
</g>
<defs>
<clipPath id="clip0_12504_232487">
<rect width="32" height="32" fill="white"/>
</clipPath>
</defs>
</svg>
