<svg width="16" height="16" viewBox="0 0 16 16" fill="none" xmlns="http://www.w3.org/2000/svg">
<g clip-path="url(#clip0_12509_4611)">
<mask id="mask0_12509_4611" style="mask-type:alpha" maskUnits="userSpaceOnUse" x="0" y="0" width="16" height="16">
<path d="M0 0H16V16H0V0Z" fill="white"/>
</mask>
<g mask="url(#mask0_12509_4611)">
<path fill-rule="evenodd" clip-rule="evenodd" d="M8 0C12.4184 0 16 3.58164 16 8C16 12.418 12.4184 16 8 16C3.58164 16 0 12.418 0 8C0 3.58164 3.58164 0 8 0Z" fill="#2775CA"/>
</g>
<path fill-rule="evenodd" clip-rule="evenodd" d="M6.49996 13.5622C6.49996 13.7504 6.35259 13.8573 6.17059 13.8005C3.75177 13.0288 1.99805 10.7607 1.99805 8.08454C1.99805 5.40845 3.75177 3.14027 6.17059 2.36863C6.35259 2.31218 6.49996 2.41872 6.49996 2.60691V3.07145C6.49996 3.19672 6.40287 3.34418 6.2835 3.385C4.36977 4.08772 2.99887 5.92618 2.99887 8.08136C2.99887 10.2365 4.36977 12.0754 6.2835 12.7777C6.40287 12.8217 6.49996 12.9659 6.49996 13.0916V13.5622Z" fill="white"/>
<path fill-rule="evenodd" clip-rule="evenodd" d="M8.49921 11.8335C8.49921 11.9717 8.3863 12.0846 8.2483 12.0846H7.74939C7.61139 12.0846 7.49848 11.9717 7.49848 11.8335V11.043C6.40666 10.8957 5.87348 10.2838 5.72912 9.45249C5.70393 9.31113 5.81684 9.18258 5.96121 9.18258H6.53221C6.65139 9.18258 6.75184 9.2674 6.77693 9.3864C6.88366 9.88213 7.16912 10.2618 8.0443 10.2618C8.69057 10.2618 9.14875 9.90094 9.14875 9.36158C9.14875 8.82176 8.87884 8.61794 7.93139 8.46094C6.53221 8.27276 5.8703 7.84913 5.8703 6.75113C5.8703 5.90413 6.51039 5.2454 7.50166 5.10413V4.32922C7.50166 4.19113 7.61466 4.07812 7.75257 4.07812H8.25148C8.38948 4.07812 8.50239 4.19113 8.50239 4.32922V5.12613C9.30866 5.27067 9.82002 5.7284 9.98639 6.48758C10.0177 6.63213 9.90475 6.76676 9.75739 6.76676H9.23021C9.1173 6.76676 9.02321 6.6914 8.98875 6.58167C8.84757 6.09876 8.50239 5.89176 7.90312 5.89176C7.24121 5.89176 6.89921 6.21167 6.89921 6.66022C6.89921 7.13394 7.09384 7.37222 8.11039 7.51994C9.4843 7.70813 10.1935 8.10022 10.1935 9.27067C10.1935 10.1584 9.53457 10.8769 8.50239 11.043V11.8335H8.49921Z" fill="white"/>
<path fill-rule="evenodd" clip-rule="evenodd" d="M9.82936 13.8003C9.64755 13.8571 9.5 13.7502 9.5 13.5621V13.0979C9.5 12.9598 9.58473 12.8312 9.71645 12.784C11.6302 12.0812 13.0011 10.2428 13.0011 8.0876C13.0011 5.93242 11.6302 4.09397 9.71645 3.39124C9.59727 3.34724 9.5 3.20306 9.5 3.07733V2.61315C9.5 2.42497 9.64755 2.31524 9.82936 2.37452C12.2482 3.14661 14.0019 5.4147 14.0019 8.09079C13.9989 10.7605 12.2482 13.0255 9.82936 13.8003Z" fill="white"/>
</g>
<defs>
<clipPath id="clip0_12509_4611">
<rect width="16" height="16" fill="white"/>
</clipPath>
</defs>
</svg>
