<svg width="24" height="24" viewBox="0 0 24 24" fill="none" xmlns="http://www.w3.org/2000/svg">
<path fill-rule="evenodd" clip-rule="evenodd" d="M9.26984 5.41681C10.5721 4.8777 12.005 4.73694 13.3873 5.01233C14.7695 5.28773 16.0391 5.96689 17.0353 6.96392L17.0368 6.96542L18.2969 8.2218H16.5186C15.8972 8.2218 15.3936 8.72548 15.3936 9.3468C15.3936 9.96812 15.8972 10.4718 16.5186 10.4718H21.0054C21.0643 10.4725 21.1233 10.4686 21.1818 10.4601C21.2328 10.4526 21.2834 10.4417 21.3332 10.4272C21.5098 10.376 21.6763 10.2806 21.8153 10.1412C21.9599 9.99621 22.0567 9.82165 22.1058 9.63705C22.1152 9.6015 22.1229 9.56558 22.1288 9.52943C22.1394 9.46477 22.1443 9.39936 22.1436 9.33401V4.8468C22.1436 4.22548 21.6399 3.7218 21.0186 3.7218C20.3972 3.7218 19.8936 4.22548 19.8936 4.8468V6.63647L18.6269 5.37358L18.6259 5.37256C17.3153 4.06124 15.6452 3.16796 13.8269 2.8057C12.0081 2.44335 10.1227 2.62856 8.40923 3.3379C6.69572 4.04725 5.2311 5.24886 4.20062 6.79074C3.17014 8.33261 2.62012 10.1455 2.62012 12C2.62012 13.8545 3.17014 15.6674 4.20062 17.2093C5.2311 18.7511 6.69572 19.9528 8.40923 20.6621C10.1227 21.3715 12.0081 21.5567 13.8269 21.1943C15.6457 20.8319 17.3161 19.9383 18.6269 18.6264C19.0661 18.1869 19.0658 17.4746 18.6263 17.0354C18.1868 16.5963 17.4745 16.5966 17.0353 17.0361C16.0391 18.0331 14.7695 18.7123 13.3873 18.9877C12.005 19.2631 10.5721 19.1223 9.26984 18.5832C7.96758 18.0441 6.85446 17.1309 6.0713 15.959C5.28814 14.7872 4.87012 13.4094 4.87012 12C4.87012 10.5906 5.28814 9.21279 6.0713 8.04096C6.85446 6.86914 7.96758 5.95591 9.26984 5.41681Z" fill="#DFE0E1"/>
</svg>
