<svg width="92" height="100" viewBox="0 0 92 100" fill="none" xmlns="http://www.w3.org/2000/svg">
<path d="M24.6793 80.9365L42.1207 10.1453C42.2307 9.69852 42.6315 9.38452 43.0916 9.38452H48.9147C49.3723 9.38452 49.7715 9.69513 49.884 10.1387L67.8383 80.9299C67.9986 81.5619 67.5209 82.1757 66.869 82.1757H25.6503C25.0011 82.1757 24.524 81.5668 24.6793 80.9365Z" fill="#D9D9D9"/>
<path d="M36.6711 24.2119L36.075 26.6812H38.6152H53.9119H56.5384L55.8399 24.1494L51.6201 8.85266L51.2151 7.38452H49.6922H42.3075H40.7329L40.3634 8.91524L36.6711 24.2119Z" fill="#FF7C01" stroke="black" stroke-width="4"/>
<path d="M28.2672 53.0946L27.4538 55.6923H30.1758H62.8791H65.719L64.7621 53.0184L60.6093 41.414L60.1348 40.0879H58.7263H33.8095H32.34L31.9009 41.4902L28.2672 53.0946Z" fill="#FF7C01" stroke="black" stroke-width="4"/>
<path d="M21.8986 81.7233L21.3288 84.1759H23.8467H68.1544H70.5954L70.1153 81.7826L67.7877 70.1782L67.4655 68.5715H65.8268H26.5427H24.954L24.5945 70.1189L21.8986 81.7233Z" fill="#FF7C01" stroke="black" stroke-width="4"/>
<path d="M3.00787 95.9999L4.48546 87.3406H87.5152L88.9928 95.9999H3.00787Z" stroke="#D2D4D6" stroke-width="4"/>
<path d="M38.3071 4.74732C38.4221 4.30712 38.8197 4 39.2747 4H52.7252C53.1801 4 53.5777 4.30711 53.6927 4.74732L75.0589 86.5604H16.941L38.3071 4.74732ZM75.386 87.8131C75.3859 87.8125 75.3857 87.8118 75.3855 87.8112L75.386 87.8131Z" stroke="#D2D4D6" stroke-width="4"/>
</svg>
