<svg width="225" height="32" viewBox="0 0 225 32" fill="none" xmlns="http://www.w3.org/2000/svg">
<g clip-path="url(#clip0_13201_254691)">
<path d="M53.926 14.0528H58.414C58.238 10.1368 54.806 7.69482 49.35 7.69482C44.004 7.69482 40 10.3568 40 15.9888C40 21.6428 44.004 24.3048 49.35 24.3048C54.806 24.3048 58.348 21.8628 58.458 17.6168H53.926C53.816 19.5528 52.518 21.1148 49.35 21.1148C46.27 21.1148 44.202 19.3328 44.202 15.9888C44.202 12.6668 46.27 10.8848 49.35 10.8848C52.518 10.8848 53.816 12.4908 53.926 14.0528Z" fill="#323232"/>
<path d="M69.7454 7.69482C64.1134 7.69482 60.1094 10.3568 60.1094 15.9888C60.1094 21.6428 64.1134 24.3048 69.7454 24.3048C75.3554 24.3048 79.3594 21.6428 79.3594 15.9888C79.3594 10.3568 75.3554 7.69482 69.7454 7.69482ZM69.7454 21.1148C66.3794 21.1148 64.3114 19.3328 64.3114 15.9888C64.3114 12.6668 66.3794 10.8848 69.7454 10.8848C73.0894 10.8848 75.1794 12.6668 75.1794 15.9888C75.1794 19.3328 73.0894 21.1148 69.7454 21.1148Z" fill="#323232"/>
<path d="M96.5232 23.8428V20.6968H85.5012V8.13482H81.6732V23.8428H96.5232Z" fill="#323232"/>
<path d="M113.582 23.8428V20.6968H102.56V8.13482H98.7318V23.8428H113.582Z" fill="#323232"/>
<path d="M119.618 11.2148H130.486V8.13482H115.79V23.8428H130.75V20.7848H119.618V17.1988H130.112V14.3168H119.618V11.2148Z" fill="#323232"/>
<path d="M146.309 14.0528H150.797C150.621 10.1368 147.189 7.69482 141.733 7.69482C136.387 7.69482 132.383 10.3568 132.383 15.9888C132.383 21.6428 136.387 24.3048 141.733 24.3048C147.189 24.3048 150.731 21.8628 150.841 17.6168H146.309C146.199 19.5528 144.901 21.1148 141.733 21.1148C138.653 21.1148 136.585 19.3328 136.585 15.9888C136.585 12.6668 138.653 10.8848 141.733 10.8848C144.901 10.8848 146.199 12.4908 146.309 14.0528Z" fill="#323232"/>
<path d="M168.058 8.13482H151.712V11.3248H157.982V23.8428H161.81V11.3248H168.058V8.13482Z" fill="#323232"/>
<path d="M178.07 7.69482C172.438 7.69482 168.434 10.3568 168.434 15.9888C168.434 21.6428 172.438 24.3048 178.07 24.3048C183.68 24.3048 187.684 21.6428 187.684 15.9888C187.684 10.3568 183.68 7.69482 178.07 7.69482ZM178.07 21.1148C174.704 21.1148 172.636 19.3328 172.636 15.9888C172.636 12.6668 174.704 10.8848 178.07 10.8848C181.414 10.8848 183.504 12.6668 183.504 15.9888C183.504 19.3328 181.414 21.1148 178.07 21.1148Z" fill="#323232"/>
<path d="M203.373 17.5728V17.4408C205.331 17.0008 206.915 15.9228 206.915 13.0408C206.915 9.71882 205.221 8.13482 201.173 8.13482H189.997V23.8428H193.825V18.1008H199.413L202.889 23.8428H207.289L203.373 17.5728ZM200.513 15.1088H193.825V11.3468H200.513C202.009 11.3468 202.669 11.9408 202.669 13.2168C202.669 14.4928 202.009 15.1088 200.513 15.1088Z" fill="#323232"/>
<path d="M22 20.7982L11.3952 27.0702L0 19.6879V7.01318L22 20.7982Z" fill="#5BEAFF"/>
<path d="M21.9765 6.56332L0 19.6923V7.01296L11.496 0L21.9765 6.56332Z" fill="#FF7C01"/>
<path fill-rule="evenodd" clip-rule="evenodd" d="M14.5663 16.1398L10.3594 13.5038L21.9768 6.56348V11.8281L14.5663 16.1398Z" fill="#E35200"/>
<path fill-rule="evenodd" clip-rule="evenodd" d="M0 24.8059V19.6626L11.395 27.0685V27.0677L21.9999 20.798V25.6477L11.3952 31.9976L11.3952 32.0001L0 24.8059Z" fill="#0483FF"/>
</g>
<defs>
<clipPath id="clip0_13201_254691">
<rect width="225" height="32" fill="white"/>
</clipPath>
</defs>
</svg>
